<?xml version="1.0" encoding="UTF-8"?>
<svg width="43px" height="16px" viewBox="0 0 43 16" version="1.1" xmlns="http://www.w3.org/2000/svg" xmlns:xlink="http://www.w3.org/1999/xlink">
    <title>小红书</title>
    <g id="页面-1" stroke="none" stroke-width="1" fill="none" fill-rule="evenodd">
        <g id="首页" transform="translate(-979.000000, -1135.000000)" fill="#000000" fill-rule="nonzero">
            <g id="编组-7" transform="translate(0.000000, 1091.000000)">
                <g id="编组-6" transform="translate(419.000000, 40.000000)">
                    <g id="编组-5" transform="translate(368.000000, 0.000000)">
                        <g id="编组-2" transform="translate(107.000000, 0.000000)">
                            <g id="小红书" transform="translate(85.000000, 4.000000)">
                                <path d="M0.668653613,3.95078149 L3.53559445,3.95078149 C3.53559445,3.95078149 3.20126764,8.75182986 3.11319089,9.59480862 C3.02511541,10.4396115 2.70876331,12.7080037 1.45953283,14.149548 L-1.0340705e-15,10.9662521 C-1.0340705e-15,10.9680495 0.334326806,10.6499 0.668653613,3.95078149 L0.668653613,3.95078149 Z M5.48045723,0.142000424 L8.36357517,0.142000424 L8.36357517,13.4126177 C8.36357517,13.4126177 7.77760593,15.499464 6.15989558,15.4760957 L4.61228601,15.4760957 L3.35406544,12.9758359 L5.21083884,12.9758359 C5.41035645,12.9758359 5.40496408,12.7008251 5.40496408,12.7745207 C5.40676155,12.9380893 5.48045723,0.142000424 5.48045723,0.142000424 L5.48045723,0.142000424 Z M19.9230298,0.0233683316 L18.4688894,3.30552149 C18.4688894,3.30552149 18.2118533,3.96159151 18.632458,3.98495984 C19.0548615,4.00832678 21.0464399,3.98495984 21.0464399,3.98495984 L19.0296944,8.50915646 C19.0296944,8.50915646 18.819392,9.0951257 19.2166296,9.0951257 L20.7175068,9.0951257 L19.7181198,11.4390068 L16.4287755,11.4390068 C16.4287755,11.4390068 14.9979991,11.2287045 15.5839726,9.93812973 C16.1699418,8.64755495 17.038113,6.60923991 17.038113,6.60923991 L15.5606042,6.63260681 C15.5606042,6.63260681 14.2250959,6.35040608 14.8811659,4.99152812 C15.5372359,3.63085256 17.1783146,0.0215764646 17.1783146,0.0215764646 L19.9230298,0.0215764646 L19.9230298,0.0233683316 Z M10.2868685,3.91664528 L13.123254,3.91664528 C13.123254,3.91664528 13.4989221,10.7739383 13.7972999,10.7991308 L12.3485519,14.0687046 C12.3485519,14.0687046 11.0130435,13.0603318 10.6607407,8.99267492 C10.3713505,5.63502861 10.2868685,3.91664528 10.2868685,3.91664528 L10.2868685,3.91664528 Z M15.1399995,12.3557136 C15.1399995,12.3557136 15.2334674,12.6127497 16.3119422,12.6127497 L19.5940954,12.6127497 L18.2819511,15.4491351 L14.7876968,15.4491351 C14.7876968,15.4491351 13.7685392,15.4725021 13.7972999,15.1435678 L15.1399995,12.3557136 L15.1399995,12.3557136 Z M28.4807176,1.10181801 L28.4807176,3.94002625 L26.6976427,3.94002625 L26.6976427,12.6145346 L29.4657263,12.6145346 L29.4657263,15.4509201 L19.9697665,15.4509201 L21.2118099,12.6379029 L23.6509591,12.6379029 L23.6976928,3.91663264 L21.9865133,3.8932657 L21.9164125,1.10181801 L28.4807176,1.10181801 Z M42.9969718,12.9650512 L42.9969718,8.98009132 C42.9969718,6.61284184 40.4841284,6.51757808 40.4841284,6.51757808 L39.7579576,6.51757808 L39.7579576,3.89149494 C39.7813246,1.477513 36.8514713,1.1018419 36.8514713,1.1018419 L35.046827,1.1018419 L35.046827,1.74159243e-15 L32.2338098,1.74159243e-15 L32.2805435,1.1018419 L30.2871663,1.1018419 L30.2871663,3.89149494 L32.2104428,3.89149494 L32.2104428,6.54094641 L29.300363,6.54094641 L29.300363,9.3773319 L32.2068492,9.40069884 L32.2068492,15.4491241 L35.0432347,15.4491241 L35.0432347,9.37912937 L39.5674314,9.37912937 C40.1767689,9.37912937 40.2235014,9.98846693 40.2235014,9.98846693 C40.2235014,9.98846693 40.3762853,11.6475174 40.3349435,12.3557164 C40.293602,13.0585231 39.7777308,13.0117864 39.7777308,13.0117864 L37.4338496,13.0117864 L38.5590556,15.4509356 L40.6926344,15.4509356 C43.1803149,15.4509356 42.9969744,12.965054 42.9969744,12.965054 L42.9969718,12.9650512 Z M36.9898741,4.1395565 L36.9898741,6.48343765 L34.9982915,6.48343765 L34.9982915,3.92745529 L36.6986862,3.92745529 C37.0276206,3.92745529 36.9898741,4.13955523 36.9898741,4.13955523 L36.9898741,4.1395565 Z M41.6488799,3.84477386 L40.3007879,3.84477386 L40.3007879,2.4966819 C40.3007879,1.75612864 40.9083266,1.14858994 41.6488799,1.14858994 C42.3912278,1.14858994 42.9969718,1.75612864 42.9969718,2.4966819 C42.9969718,3.23723516 42.3912278,3.84477386 41.6488799,3.84477386 Z" id="形状"></path>
                            </g>
                        </g>
                    </g>
                </g>
            </g>
        </g>
    </g>
</svg>